PathFileType	4	(X/Y/Z)	/Users/itak/Documents/Research/Walk-IL/dataset/trc/00058_00006.trc
DataRate	CameraRate	NumFrames	NumMarkers	Units	OrigDataRate	OrigDataStartFrame	OrigNumFrames
100.000000	100.000000	4	53	mm	100.000000	205	821
Frame#	Time	RPSI			LPSI			L3			STRN			T10			C7			CLAV			RBAK			LBAK			LSHO			LUPA			LAEL			LAOL			LWTS			LWPS			LFRA			LIFD			LHPS			LHTS			RSHO			RUPA			RAEL			RAOL			RWTS			RWPS			RFRA			RIFD			RHTS			RHPS			RBHD			LFHD			RFHD			LBHD			LHIP			RHIP			RASI			LASI			LKNE			LTHI			LANK			LTIP			LTOE			LMT1			LMT5			LHEE			RKNE			RTHI			RANK			RTIP			RTOE			RMT1			RMT5			RHEE			
		X1	Y1	Z1	X2	Y2	Z2	X3	Y3	Z3	X4	Y4	Z4	X5	Y5	Z5	X6	Y6	Z6	X7	Y7	Z7	X8	Y8	Z8	X9	Y9	Z9	X10	Y10	Z10	X11	Y11	Z11	X12	Y12	Z12	X13	Y13	Z13	X14	Y14	Z14	X15	Y15	Z15	X16	Y16	Z16	X17	Y17	Z17	X18	Y18	Z18	X19	Y19	Z19	X20	Y20	Z20	X21	Y21	Z21	X22	Y22	Z22	X23	Y23	Z23	X24	Y24	Z24	X25	Y25	Z25	X26	Y26	Z26	X27	Y27	Z27	X28	Y28	Z28	X29	Y29	Z29	X30	Y30	Z30	X31	Y31	Z31	X32	Y32	Z32	X33	Y33	Z33	X34	Y34	Z34	X35	Y35	Z35	X36	Y36	Z36	X37	Y37	Z37	X38	Y38	Z38	X39	Y39	Z39	X40	Y40	Z40	X41	Y41	Z41	X42	Y42	Z42	X43	Y43	Z43	X44	Y44	Z44	X45	Y45	Z45	X46	Y46	Z46	X47	Y47	Z47	X48	Y48	Z48	X49	Y49	Z49	X50	Y50	Z50	X51	Y51	Z51	X52	Y52	Z52	X53	Y53	Z53	

206	2.05	2.328569889068604	1033.066772460938	1281.490112304688	-28.75071334838867	1022.036804199219	1109.703857421875	-12.63508415222168	1090.109130859375	1197.639038085938	259.2274169921875	1265.537963867188	1171.755249023438	-10.02075481414795	1223.744262695312	1204.872192382812	71.17222595214844	1484.436157226562	1201.487182617188	7.704413414001465	1350.143188476562	1281.028930664062	237.7399139404297	1381.860107421875	1175.375366210938	30.15517234802246	1452.857666015625	1105.708129882812	120.5510787963867	1449.820678710938	1018.350646972656	75.55481719970703	1331.650634765625	941.3609619140625	64.19017028808594	1120.204467773438	903.961181640625	22.35412406921387	1102.955810546875	1001.16552734375	154.9157867431641	874.0667114257812	930.3886108398438	82.77037048339844	867.8323974609375	886.5850830078125	74.89839172363281	1010.374938964844	885.9949951171875	167.2774658203125	686.4692993164062	933.7315673828125	111.6181411743164	785.1498413085938	880.6301879882812	171.5194549560547	790.9888305664062	918.701904296875	155.9280090332031	1437.861694335938	1364.453002929688	148.3621978759766	1370.028564453125	1429.610717773438	100.8926315307617	1106.061279296875	1466.285888671875	97.80536651611328	1086.1884765625	1368.026977539062	236.2333526611328	860.9502563476562	1378.621215820312	177.6653289794922	836.9447631835938	1439.593505859375	113.9089965820312	1022.366394042969	1466.394409179688	246.5243072509766	673.4407958984375	1345.506591796875	261.7040405273438	759.559326171875	1364.21533203125	217.3540954589844	750.892333984375	1425.96923828125	121.9518508911133	1670.847290039062	1160.131713867188	335.9625854492188	1654.915771484375	1184.182739257812	277.815673828125	1660.493774414062	1072.58154296875	192.1715393066406	1655.544067382812	1277.915405273438	65.62680816650391	966.467529296875	1002.823913574219	67.24111175537109	955.7607421875	1350.765258789062	192.8459777832031	963.8816528320312	1320.84912109375	179.4095001220703	968.9080810546875	1053.129150390625	302.3245544433594	543.7291870117188	1002.221435546875	219.5480194091797	670.5629272460938	981.7096557617188	214.6847686767578	70.73035430908203	992.5365600585938	247.5678253173828	291.0179748535156	982.296142578125	411.24609375	92.73333740234375	950.3104858398438	378.7238464355469	80.95980072021484	1011.562683105469	303.28515625	73.87582397460938	930.3496704101562	184.5412902832031	63.67031478881836	1078.219970703125	85.62630462646484	510.6004943847656	1328.277954101562	129.3597717285156	778.9275512695312	1350.983154296875	-59.553466796875	44.88998794555664	1329.075805664062	48.52659606933594	391.082275390625	1334.925659179688	154.8434753417969	43.74033737182617	1296.657592773438	96.64018249511719	47.77484130859375	1254.395874023438	64.62924957275391	47.27375411987305	1347.530029296875	-107.6083984375	46.66767120361328	1272.0595703125	
207	2.06	7.447490692138672	1032.257446289062	1280.556884765625	-24.42144203186035	1021.350769042969	1108.86083984375	-7.926212310791016	1089.47216796875	1196.843994140625	264.0016174316406	1264.30908203125	1169.171264648438	-4.991941928863525	1223.002075195312	1204.252685546875	76.53726959228516	1483.581665039062	1200.18408203125	13.26171016693115	1349.5869140625	1280.20361328125	242.6945343017578	1380.669067382812	1172.867309570312	34.69780349731445	1452.01025390625	1104.803955078125	124.2854843139648	1448.661865234375	1016.751647949219	78.19193267822266	1330.699096679688	940.140625	65.57784271240234	1119.48876953125	902.4037475585938	24.76740837097168	1102.168212890625	1000.084777832031	155.2726135253906	872.7496337890625	926.9873046875	82.64775848388672	867.0929565429688	883.9832763671875	75.51374053955078	1009.686767578125	883.9689331054688	166.4890899658203	685.0288696289062	929.5625	110.9073944091797	784.2692260742188	877.4320068359375	171.2546997070312	789.5924072265625	914.8624267578125	162.4433898925781	1436.949584960938	1362.536254882812	155.2234649658203	1369.179931640625	1427.808959960938	107.3730621337891	1105.314208984375	1465.120483398438	103.5097579956055	1085.457641601562	1366.849731445312	242.2863464355469	860.5210571289062	1375.835571289062	184.28662109375	836.2741088867188	1437.190795898438	120.3801193237305	1021.499145507812	1465.004028320312	252.6379547119141	673.1360473632812	1341.985229492188	267.81982421875	759.2077026367188	1360.91015625	223.8622741699219	750.254638671875	1422.931640625	127.3882141113281	1669.905029296875	1158.6474609375	341.6918029785156	1653.386108398438	1180.153442382812	282.1943664550781	1659.106323242188	1069.2744140625	199.0020294189453	1654.45361328125	1275.612915039062	69.42897796630859	965.7173461914062	1001.550354003906	72.77443695068359	954.7902221679688	1349.451782226562	198.0841369628906	962.8197631835938	1318.755004882812	183.4956970214844	968.0733032226562	1051.1875	305.5265502929688	543.4017333984375	1000.073669433594	222.7523956298828	669.6920166015625	979.1613159179688	234.2895660400391	68.78829956054688	986.6027221679688	259.3023071289062	290.1379699707031	978.0906982421875	430.30810546875	96.86776733398438	945.0881958007812	397.9894104003906	83.68314361572266	1006.177917480469	322.9280700683594	75.07492828369141	924.690673828125	204.2271270751953	60.21065139770508	1072.191650390625	88.28836059570312	509.9280395507812	1327.030151367188	133.5881042480469	778.21826171875	1349.56884765625	-59.41041946411133	45.11890029907227	1328.940551757812	50.453125	390.8233032226562	1333.990600585938	154.9777374267578	43.48153305053711	1296.682006835938	96.81156158447266	47.67834091186523	1254.285034179688	64.78787231445312	47.18490219116211	1347.53271484375	-107.5430221557617	46.8970832824707	1271.920776367188	
208	2.07	12.71180248260498	1031.365234375	1279.5126953125	-19.89688491821289	1020.567138671875	1107.904052734375	-3.038589000701904	1088.738647460938	1195.894775390625	268.8697814941406	1263.032470703125	1166.484252929688	0.1498410701751709	1222.16650390625	1203.464233398438	81.95885467529297	1482.645385742188	1198.732543945312	18.9052734375	1348.922241210938	1279.225952148438	247.7249908447266	1379.427978515625	1170.232421875	39.33227920532227	1451.056030273438	1103.737548828125	128.1128540039062	1447.435302734375	1015.017822265625	80.95054626464844	1329.670166015625	938.799560546875	67.11600494384766	1118.697998046875	900.7431030273438	27.3300666809082	1101.294677734375	998.8795776367188	155.7942504882812	871.3753662109375	923.4907836914062	82.70912933349609	866.2974243164062	881.3152465820312	76.29324340820312	1008.931579589844	881.846435546875	165.8324127197266	683.539306640625	925.330322265625	110.3666152954102	783.3370361328125	874.1567993164062	171.1324310302734	788.1392211914062	910.9501342773438	169.0062561035156	1435.972778320312	1360.470947265625	162.1336212158203	1368.265502929688	1425.84765625	114.0310897827148	1104.49072265625	1463.840087890625	109.3374633789062	1084.644897460938	1365.566040039062	248.4445648193359	860.022216796875	1372.843994140625	191.1040649414062	835.5306396484375	1434.63330078125	127.0489807128906	1020.554626464844	1463.487915039062	258.8047485351562	672.7626953125	1338.259033203125	274.0189819335938	758.79248046875	1357.354125976562	230.5579071044922	749.5588989257812	1419.716674804688	132.8918914794922	1668.890991210938	1157.018798828125	347.44384765625	1651.821655273438	1175.984741210938	286.6337890625	1657.663452148438	1065.8427734375	205.8642730712891	1653.289184570312	1273.140502929688	73.4136962890625	964.821044921875	1000.194213867188	78.46787261962891	953.75634765625	1348.023559570312	203.4859161376953	961.7269897460938	1316.57470703125	187.7478637695312	967.1102294921875	1049.179443359375	308.5728759765625	542.7788696289062	997.9508666992188	225.8040161132812	668.4826049804688	976.5536499023438	253.5523071289062	67.26150512695312	980.5418701171875	270.7654724121094	289.3808898925781	973.8723754882812	448.8836059570312	101.3325653076172	939.9111938476562	416.7575378417969	86.70309448242188	1000.816040039062	342.1774597167969	76.6572265625	918.9967651367188	223.5374755859375	57.14313125610352	1065.98974609375	91.213134765625	509.2153930664062	1325.756713867188	138.1178894042969	777.3998413085938	1348.011352539062	-59.26128387451172	45.36280822753906	1328.802490234375	52.59929275512695	390.5260009765625	1333.035522460938	155.1364440917969	43.20436859130859	1296.693969726562	96.95810699462891	47.56999588012695	1254.172973632812	64.93885803222656	47.12518310546875	1347.549438476562	-107.4581298828125	47.17047119140625	1271.781860351562	
209	2.08	18.1066951751709	1030.38916015625	1278.3505859375	-15.18834590911865	1019.684204101562	1106.828247070312	2.030910968780518	1087.912719726562	1194.785522460938	273.825927734375	1261.719604492188	1163.69140625	5.399163722991943	1221.241455078125	1202.509521484375	87.43221282958984	1481.634643554688	1197.123779296875	24.65061569213867	1348.13232421875	1278.1123046875	252.8295288085938	1378.148559570312	1167.466430664062	44.05459976196289	1449.997314453125	1102.504638671875	132.0366973876953	1446.149780273438	1013.141967773438	83.83235931396484	1328.573486328125	937.3286743164062	68.81102752685547	1117.839721679688	898.9710083007812	30.07707977294922	1100.33544921875	997.5519409179688	156.4984588623047	869.9591064453125	919.901123046875	82.9659423828125	865.452880859375	878.5823364257812	77.24663543701172	1008.116455078125	879.6222534179688	165.3289489746094	682.01953125	921.0426635742188	110.0086898803711	782.3603515625	870.8049926757812	171.171875	786.6441040039062	906.9625244140625	175.6107788085938	1434.9423828125	1358.253540039062	169.0908508300781	1367.300659179688	1423.727783203125	120.8734436035156	1103.598388671875	1462.421752929688	115.2914810180664	1083.7578125	1364.159545898438	254.7038421630859	859.4539184570312	1369.6494140625	198.0890502929688	834.7158203125	1431.90576171875	133.9176940917969	1019.544128417969	1461.8291015625	265.0265197753906	672.3209838867188	1334.352294921875	280.3031005859375	758.3072509765625	1353.572265625	237.4373016357422	748.8113403320312	1416.331787109375	138.4718780517578	1667.821533203125	1155.2431640625	353.2193908691406	1650.22216796875	1171.6787109375	291.138671875	1656.171142578125	1062.284423828125	212.7587585449219	1652.058471679688	1270.492797851562	77.57130432128906	963.783203125	998.7484130859375	84.300537109375	952.6705322265625	1346.478881835938	209.0409851074219	960.60498046875	1314.318115234375	192.1706848144531	966.0369262695312	1047.101196289062	311.5090637207031	541.8992919921875	995.8531494140625	228.6897583007812	666.937255859375	973.9047241210938	272.3388671875	66.16146087646484	974.388427734375	281.9154663085938	288.76611328125	969.6641235351562	466.8609313964844	106.0663757324219	934.813232421875	434.9095458984375	89.98289489746094	995.4979248046875	360.9035339355469	78.59873962402344	913.2986450195312	242.3286437988281	54.49124526977539	1059.646728515625	94.40402221679688	508.46484375	1324.453735351562	142.9386138916016	776.4761352539062	1346.311401367188	-59.10468673706055	45.61990356445312	1328.654418945312	54.96379852294922	390.1888732910156	1332.059936523438	155.3260803222656	42.90837097167969	1296.70947265625	97.09203338623047	47.45913314819336	1254.0673828125	65.07888031005859	47.09483337402344	1347.579956054688	-107.3523559570312	47.49677276611328	1271.646606445312	
